<?xml version="1.0" encoding="utf-8"?>
<!-- Generator: Adobe Illustrator 27.9.0, SVG Export Plug-In . SVG Version: 6.00 Build 0)  -->
<svg version="1.1" id="Camada_1" xmlns="http://www.w3.org/2000/svg" xmlns:xlink="http://www.w3.org/1999/xlink" x="0px" y="0px"
	 viewBox="0 0 331.68 82.18" style="enable-background:new 0 0 331.68 82.18;" xml:space="preserve">
<style type="text/css">
	.st0{fill:#FFFFFF;}
	.st1{fill:#38457A;}
	.st2{fill:#D82521;}
	.st3{fill:#D84C4C;}
	.st4{fill:#B3B3B3;}
	.st5{fill:#A5A5A5;}
	.st6{fill:#898989;}
	.st7{fill:#999999;}
	.st8{fill:#474747;}
	.st9{fill:#5A5A5A;}
	.st10{fill:#767676;}
</style>
<g>
	<g>
		<g>
			<g>
				<path class="st7" d="M190.85,53.59c0.03-0.38,0.17-0.8,0.41-1.24c0.24-0.44,0.52-0.78,0.83-1.02c0.91,0.5,1.91,0.97,2.99,1.39
					c1.08,0.43,2.18,0.64,3.3,0.64c1.45,0,2.61-0.33,3.48-1c0.88-0.66,1.32-1.51,1.34-2.54c0-0.75-0.28-1.46-0.85-2.11
					c-0.57-0.66-1.38-1.18-2.42-1.56l-2.63-0.97c-1-0.37-1.94-0.82-2.8-1.36c-0.86-0.54-1.56-1.19-2.08-1.97
					c-0.52-0.77-0.79-1.7-0.79-2.78c0-1.25,0.34-2.33,1.01-3.23c0.67-0.9,1.56-1.59,2.68-2.07c1.11-0.48,2.33-0.72,3.66-0.72
					c1.09,0,2.25,0.14,3.47,0.41c1.22,0.27,2.28,0.61,3.16,1.01c0,0.41-0.08,0.84-0.25,1.29c-0.17,0.45-0.41,0.83-0.72,1.14
					c-0.68-0.31-1.52-0.61-2.53-0.9c-1.01-0.29-2.08-0.43-3.22-0.43c-1.19,0-2.17,0.3-2.93,0.9c-0.76,0.6-1.14,1.41-1.14,2.42
					c0,0.77,0.29,1.4,0.86,1.91c0.58,0.51,1.42,0.98,2.54,1.4l2.72,1.02c1.64,0.6,2.95,1.42,3.95,2.44c1,1.03,1.49,2.33,1.49,3.93
					c0,1.95-0.76,3.47-2.29,4.56c-1.53,1.09-3.46,1.64-5.81,1.64c-1.55,0-2.95-0.23-4.19-0.67
					C192.84,54.68,191.76,54.16,190.85,53.59z"/>
				<path class="st7" d="M225.88,44.43c0,2.18-0.34,4.13-1.03,5.85c-0.69,1.72-1.71,3.07-3.06,4.05c-1.36,0.98-3.05,1.47-5.07,1.47
					c-2.02,0-3.71-0.5-5.06-1.49c-1.35-1-2.36-2.35-3.04-4.07c-0.68-1.72-1.02-3.65-1.02-5.81c0-2.18,0.34-4.13,1.03-5.84
					c0.69-1.71,1.71-3.06,3.06-4.05c1.36-0.99,3.03-1.48,5.02-1.48c2.04,0,3.73,0.5,5.09,1.49c1.36,1,2.37,2.35,3.05,4.06
					C225.54,40.32,225.88,42.26,225.88,44.43z M210.79,44.43c0,1.48,0.18,2.89,0.55,4.26c0.37,1.36,0.99,2.49,1.86,3.36
					c0.87,0.88,2.06,1.32,3.56,1.32c1.49,0,2.67-0.44,3.53-1.32c0.86-0.88,1.48-2,1.85-3.36c0.37-1.36,0.55-2.78,0.55-4.26
					c0-1.46-0.18-2.88-0.55-4.26c-0.37-1.38-0.98-2.51-1.85-3.4c-0.86-0.88-2.04-1.33-3.53-1.33c-1.5,0-2.69,0.44-3.56,1.33
					c-0.87,0.88-1.49,2.02-1.86,3.4C210.98,41.55,210.79,42.97,210.79,44.43z"/>
				<path class="st7" d="M235.23,52.88c0.18,0.44,0.27,1,0.27,1.68c0,0.1,0,0.21,0,0.32c0,0.11-0.01,0.21-0.04,0.3
					c-0.41,0.06-0.93,0.12-1.55,0.18c-0.62,0.06-1.15,0.09-1.59,0.09c-1.06,0-1.93-0.3-2.61-0.91c-0.68-0.6-1.02-1.48-1.02-2.63
					V23.01l0.27-0.27h1.11c0.71,0,1.16,0.18,1.35,0.54c0.19,0.36,0.29,0.89,0.29,1.58v26.15c0,0.62,0.14,1.08,0.42,1.39
					c0.28,0.31,0.69,0.46,1.22,0.46H235.23z"/>
				<path class="st7" d="M237.03,37.7c0-0.71-0.03-1.38-0.09-2.02c-0.06-0.64-0.19-1.21-0.4-1.69c0.22-0.21,0.51-0.37,0.87-0.49
					c0.36-0.12,0.72-0.18,1.07-0.18c0.58,0,0.98,0.17,1.23,0.5c0.24,0.33,0.36,0.84,0.36,1.54v12.43c0,1.78,0.23,3.08,0.69,3.88
					c0.46,0.8,1.33,1.21,2.63,1.21c0.93,0,1.91-0.21,2.93-0.64c1.02-0.43,1.98-1,2.85-1.7c0.88-0.71,1.56-1.49,2.05-2.35v3.32
					c-0.94,1.21-2.2,2.21-3.76,2.99c-1.56,0.78-3.16,1.17-4.78,1.17c-1.4,0-2.51-0.31-3.34-0.94c-0.83-0.63-1.42-1.46-1.78-2.5
					c-0.36-1.04-0.54-2.18-0.54-3.42V37.7z M253.44,49.16c0,0.94,0.07,1.85,0.21,2.72c0.14,0.87,0.48,1.57,1.03,2.1
					c-0.1,0.28-0.29,0.58-0.55,0.88c-0.27,0.31-0.57,0.55-0.91,0.71c-1.12-0.44-1.87-1.15-2.26-2.12c-0.38-0.97-0.58-2.04-0.58-3.19
					V33.59c0.4-0.09,0.9-0.13,1.5-0.13c0.63,0,1.15,0.04,1.55,0.13V49.16z"/>
				<path class="st7" d="M269.12,33.54c0.09,0.44,0.13,0.84,0.13,1.19c0,0.4-0.04,0.8-0.13,1.19l-8.48-0.09l-5.13,0.09
					c-0.09-0.4-0.13-0.8-0.13-1.19c0-0.35,0.04-0.75,0.13-1.19l5.09,0.09L269.12,33.54z M258.61,28.85c0-0.69,0.1-1.22,0.29-1.58
					c0.19-0.36,0.64-0.54,1.35-0.54h1.11l0.27,0.27v24.07c0,0.53,0.13,0.97,0.39,1.31c0.26,0.34,0.7,0.51,1.34,0.51h3.41
					c0.18,0.44,0.27,1,0.27,1.68c0,0.1,0,0.21,0,0.32c0,0.11-0.01,0.21-0.04,0.3c-0.68,0.09-1.37,0.15-2.07,0.2
					c-0.7,0.04-1.49,0.07-2.36,0.07c-1.19,0-2.15-0.3-2.87-0.91c-0.72-0.6-1.07-1.48-1.07-2.63V28.85z"/>
				<path class="st7" d="M273.68,55.27c-0.4,0.09-0.9,0.13-1.5,0.13c-0.63,0-1.15-0.04-1.55-0.13V38.06c0-0.83-0.13-1.39-0.39-1.68
					c-0.26-0.29-0.73-0.44-1.43-0.44h-0.4c-0.09-0.4-0.13-0.78-0.13-1.15c0-0.21,0.01-0.39,0.03-0.56c0.02-0.17,0.06-0.36,0.1-0.59
					c0.49-0.07,0.91-0.12,1.26-0.14c0.35-0.02,0.64-0.03,0.86-0.03h0.35c0.88,0,1.57,0.27,2.06,0.81c0.49,0.54,0.73,1.29,0.73,2.25
					V55.27z M269.26,27.88c0-0.65,0.1-1.18,0.31-1.59c0.21-0.13,0.49-0.24,0.86-0.32c0.37-0.08,0.72-0.12,1.04-0.12
					c0.29,0,0.64,0.04,1.04,0.12c0.4,0.08,0.69,0.19,0.86,0.32c0.09,0.18,0.16,0.42,0.22,0.73c0.06,0.31,0.09,0.6,0.09,0.86
					c0,0.65-0.1,1.18-0.31,1.59c-0.15,0.13-0.43,0.24-0.84,0.32c-0.41,0.08-0.77,0.12-1.06,0.12c-0.32,0-0.67-0.04-1.04-0.12
					c-0.37-0.08-0.66-0.19-0.86-0.32C269.36,29.06,269.26,28.53,269.26,27.88z"/>
				<path class="st7" d="M294.83,44.43c0,2.18-0.34,4.13-1.03,5.85c-0.69,1.72-1.71,3.07-3.06,4.05c-1.36,0.98-3.05,1.47-5.07,1.47
					c-2.02,0-3.71-0.5-5.06-1.49c-1.35-1-2.36-2.35-3.04-4.07c-0.68-1.72-1.02-3.65-1.02-5.81c0-2.18,0.34-4.13,1.03-5.84
					c0.69-1.71,1.71-3.06,3.06-4.05c1.36-0.99,3.03-1.48,5.02-1.48c2.04,0,3.73,0.5,5.09,1.49c1.36,1,2.37,2.35,3.05,4.06
					C294.49,40.32,294.83,42.26,294.83,44.43z M279.74,44.43c0,1.48,0.18,2.89,0.55,4.26c0.37,1.36,0.99,2.49,1.86,3.36
					c0.87,0.88,2.06,1.32,3.56,1.32c1.49,0,2.67-0.44,3.53-1.32c0.86-0.88,1.48-2,1.85-3.36c0.37-1.36,0.55-2.78,0.55-4.26
					c0-1.46-0.18-2.88-0.55-4.26c-0.37-1.38-0.98-2.51-1.85-3.4c-0.86-0.88-2.04-1.33-3.53-1.33c-1.5,0-2.69,0.44-3.56,1.33
					c-0.87,0.88-1.49,2.02-1.86,3.4C279.92,41.55,279.74,42.97,279.74,44.43z"/>
				<path class="st7" d="M299.08,33.46c0.71,0,1.16,0.18,1.35,0.54c0.19,0.36,0.29,0.89,0.29,1.58v19.69
					c-0.4,0.09-0.9,0.13-1.5,0.13c-0.63,0-1.15-0.04-1.55-0.13V33.72l0.27-0.27H299.08z M314.08,51.15c0,0.71,0.03,1.38,0.1,2.02
					c0.07,0.64,0.2,1.21,0.39,1.69c-0.22,0.19-0.51,0.35-0.87,0.48c-0.36,0.13-0.72,0.19-1.07,0.19c-0.58,0-0.98-0.17-1.23-0.51
					c-0.24-0.34-0.36-0.85-0.36-1.53V41.07c0-1.8-0.23-3.1-0.67-3.89c-0.45-0.8-1.33-1.19-2.64-1.19c-0.93,0-1.91,0.21-2.93,0.64
					c-1.03,0.43-1.98,1-2.85,1.7c-0.88,0.71-1.56,1.49-2.05,2.35v-3.32c0.96-1.22,2.22-2.22,3.78-3c1.56-0.77,3.15-1.16,4.76-1.16
					c1.4,0,2.51,0.31,3.34,0.94c0.83,0.63,1.42,1.46,1.78,2.5c0.36,1.04,0.54,2.18,0.54,3.42V51.15z"/>
				<path class="st7" d="M316.15,53.59c0.03-0.38,0.17-0.8,0.41-1.24c0.24-0.44,0.52-0.78,0.83-1.02c0.91,0.5,1.91,0.97,2.99,1.39
					c1.08,0.43,2.18,0.64,3.3,0.64c1.45,0,2.61-0.33,3.48-1c0.88-0.66,1.32-1.51,1.34-2.54c0-0.75-0.28-1.46-0.85-2.11
					c-0.57-0.66-1.38-1.18-2.42-1.56l-2.63-0.97c-1-0.37-1.94-0.82-2.8-1.36c-0.86-0.54-1.56-1.19-2.08-1.97
					c-0.52-0.77-0.79-1.7-0.79-2.78c0-1.25,0.34-2.33,1.01-3.23c0.67-0.9,1.56-1.59,2.68-2.07c1.11-0.48,2.33-0.72,3.66-0.72
					c1.09,0,2.25,0.14,3.47,0.41c1.22,0.27,2.28,0.61,3.16,1.01c0,0.41-0.08,0.84-0.25,1.29c-0.17,0.45-0.41,0.83-0.72,1.14
					c-0.68-0.31-1.52-0.61-2.53-0.9c-1.01-0.29-2.08-0.43-3.22-0.43c-1.19,0-2.17,0.3-2.93,0.9c-0.76,0.6-1.14,1.41-1.14,2.42
					c0,0.77,0.29,1.4,0.86,1.91c0.58,0.51,1.42,0.98,2.54,1.4l2.72,1.02c1.64,0.6,2.95,1.42,3.95,2.44c1,1.03,1.49,2.33,1.49,3.93
					c0,1.95-0.76,3.47-2.29,4.56c-1.53,1.09-3.46,1.64-5.81,1.64c-1.55,0-2.95-0.23-4.19-0.67
					C318.14,54.68,317.06,54.16,316.15,53.59z"/>
			</g>
			<g>
				<g>
					<path class="st1" d="M180.11,29.72c-1.07-2.71-2.74-4.85-4.96-6.38c-2.22-1.53-5.07-2.3-8.47-2.3c-3.37,0-6.2,0.77-8.42,2.28
						c-2.22,1.51-3.89,3.65-4.97,6.36c-1.07,2.67-1.61,5.83-1.61,9.37c0,2.63,0.3,5.07,0.89,7.25c0.6,2.2,1.52,4.13,2.74,5.74
						c1.23,1.62,2.82,2.88,4.7,3.76c1.88,0.87,4.12,1.31,6.66,1.31c3.39,0,6.23-0.77,8.44-2.29c2.21-1.52,3.89-3.67,4.97-6.38
						c1.07-2.68,1.61-5.84,1.61-9.39C181.71,35.53,181.18,32.39,180.11,29.72z M160.72,35.04c0.15-1.33,0.45-2.56,0.88-3.68
						c0.42-1.07,1.05-1.95,1.86-2.61c0.8-0.64,1.88-0.97,3.22-0.97s2.43,0.33,3.22,0.97c0.82,0.66,1.44,1.54,1.86,2.61
						c0.43,1.11,0.73,2.35,0.88,3.68c0.15,1.35,0.23,2.7,0.23,4c0,1.31-0.08,2.66-0.23,4.01c-0.15,1.33-0.45,2.58-0.88,3.7
						c-0.42,1.08-1.05,1.96-1.86,2.62c-0.8,0.64-1.88,0.97-3.22,0.97s-2.43-0.33-3.22-0.97c-0.82-0.66-1.44-1.54-1.86-2.62
						c-0.43-1.12-0.73-2.37-0.88-3.7c-0.15-1.35-0.23-2.7-0.23-4.01C160.49,37.73,160.56,36.39,160.72,35.04z"/>
				</g>
				<g>
					<path class="st1" d="M122.35,43.22h-7.88c-0.4,0-0.96,0-1.67-0.01l-1.07-0.01v3.56c0,0.08,0,0.16,0,0.24v0.17
						c0,0.06,0,0.11,0,0.17c0,0.02,0,0.04,0,0.06v0.06c0,0.22-0.01,0.43-0.01,0.63c0,0.08,0,0.16-0.01,0.25
						c0,0.08-0.01,0.17-0.01,0.25c0,0.06,0,0.12,0,0.18c0,0.05,0,0.09,0,0.14c0,0.09,0,0.19,0,0.29c0,0.09,0,0.19,0,0.29
						c0.38-0.01,0.75-0.01,1.12-0.02c0.71-0.01,1.27-0.01,1.67-0.01h11.98v0.47c0,2.04-0.32,3.63-0.97,4.73
						c-0.02,0.03-0.04,0.07-0.06,0.1c-0.36,0.59-0.9,1.03-1.61,1.32c-0.71,0.3-1.59,0.44-2.64,0.44h-12.95c-1,0-1.86-0.22-2.57-0.64
						c-0.31-0.18-0.59-0.4-0.85-0.66c-0.41-0.43-0.72-0.93-0.93-1.51c-0.16-0.43-0.25-0.91-0.29-1.42
						c-0.01-0.17-0.02-0.35-0.02-0.53v-28.4l0.61-0.61h17c0.66,0,1.25,0.06,1.77,0.17c0.1,0.02,0.21,0.05,0.31,0.08
						c1,0.28,1.72,0.79,2.18,1.52c0.01,0.02,0.02,0.04,0.03,0.06c0.01,0.02,0.02,0.03,0.03,0.04c0.64,1.1,0.97,2.69,0.97,4.73v0.47
						h-11.98c-0.4,0-0.96,0-1.67-0.01c-0.37,0-0.74-0.01-1.12-0.02c0,0.1,0,0.2,0,0.29c0,0.1,0,0.19,0,0.28c0,0.11,0,0.21,0,0.32
						c0,0.06,0,0.11,0,0.16c0,0.03,0,0.06,0,0.09c0,0.08,0,0.16,0.01,0.24v0c0.01,0.2,0.01,0.41,0.01,0.62c0,0,0,0,0,0v0.11
						c0,0.04,0,0.07,0,0.11c0,0.04,0,0.08,0,0.11v0.12c0,0.05,0,0.11,0,0.16v3.64l1.07-0.01c0.71-0.01,1.27-0.01,1.67-0.01h7.88
						V43.22z"/>
					<path class="st1" d="M150.63,49.27v0.47c0,0.27-0.01,0.53-0.02,0.78c0,0.01,0,0.01,0,0.01c0,0.01,0,0.01,0,0.01
						c0,0.01,0,0.01,0,0.01v0.01c-0.08,2.02-0.48,3.45-1.21,4.36c-0.84,1.04-2.25,1.57-4.19,1.57l-11.3-0.01
						c-1.31-0.04-2.37-0.47-3.18-1.27c-0.86-0.84-1.29-2.01-1.29-3.48V23.05l0.29-0.29l0.31-0.32h2.88c0.78,0,1.47,0.11,2.06,0.32
						c0.59,0.21,1.09,0.52,1.49,0.93c0.81,0.82,1.23,2.12,1.23,3.87v21.86c1.42-0.09,2.76-0.14,3.98-0.14H150.63z"/>
				</g>
			</g>
		</g>
	</g>
	<g>
		<path class="st2" d="M19.64,45.38c-2.97,2.35-5.86,5.17-8.04,8.34c1.07,0.43,2.19,0.78,3.32,1.06c0.4-0.47,0.81-0.91,1.23-1.34
			c3.13-3.12,6.93-5.63,11.09-7.57C24.68,45.99,22.12,45.87,19.64,45.38z"/>
		<path class="st1" d="M73.6,15.19c0.01-0.46-0.07-1.09-0.11-1.56c-0.06-0.38-0.13-0.78-0.2-1.16c-0.06-0.27-0.22-0.87-0.29-1.15
			c-0.12-0.36-0.26-0.76-0.4-1.12c-0.12-0.25-0.36-0.82-0.5-1.08c-0.15-0.25-0.43-0.79-0.59-1.03c-0.22-0.31-0.45-0.67-0.68-0.97
			c-0.22-0.25-0.53-0.66-0.76-0.91c-0.27-0.27-0.55-0.58-0.83-0.84c-0.36-0.3-0.81-0.74-1.2-1c-6.29-4.68-15.6-4.89-23.1-3.88
			C29.73,2.63,12.68,10.96,4.22,24.19c-4.01,6.3-5.88,14.1-2.36,21.05c2.16,4.12,5.67,6.86,9.74,8.48c1.07,0.43,2.19,0.78,3.32,1.06
			c1.77,0.43,3.6,0.69,5.43,0.79c13.35,0.69,27.42-5.73,37.84-14.52c-1.66-0.21-3.32-0.33-4.97-0.39c-1.82-0.04-3.69,0-5.57,0.13
			c-4.55,2.04-9.32,3.49-13.91,4.35c-2.13,0.36-4.31,0.63-6.5,0.74c-2.56,0.12-5.12,0-7.6-0.48c-0.96-0.19-1.91-0.44-2.84-0.75
			c-0.89-0.3-1.72-0.7-2.54-1.16c-0.38-0.24-0.76-0.5-1.12-0.78c-0.48-0.39-0.9-0.83-1.29-1.31c-0.07-0.1-0.26-0.39-0.33-0.48
			c-0.09-0.16-0.19-0.34-0.28-0.5c-0.07-0.17-0.16-0.35-0.24-0.52l-0.06-0.18l-0.13-0.36c-0.16-0.59-0.28-1.2-0.32-1.81
			c-0.02-0.45,0-0.91,0.02-1.36c0.1-0.93,0.26-1.84,0.54-2.74c1.67-5.43,5.44-10.08,9.45-14.07C29.71,10.51,43.4,3.17,56.45,3.71
			c5.01,0.23,10.66,2,13.12,6.72c2.41,4.74,0.55,10.37-2.17,14.58c-1.67,2.55-3.72,4.88-6.02,6.99c1.69,0.14,3.36,0.37,5,0.71
			C70.37,27.66,73.72,21.47,73.6,15.19z"/>
		<path class="st3" d="M77.82,67.21c-11,11.21-29.4,15.86-44.73,14.82c-7.54-0.55-16.61-2.67-21.81-8.54
			c-0.33-0.33-0.69-0.86-0.97-1.22c-0.23-0.31-0.43-0.67-0.64-0.99c-0.18-0.29-0.39-0.75-0.56-1.04c-0.16-0.35-0.31-0.74-0.47-1.09
			c-0.1-0.27-0.27-0.85-0.36-1.13c-0.08-0.28-0.2-0.89-0.26-1.16c-0.06-0.38-0.11-0.8-0.16-1.18c-0.01-0.29-0.05-0.9-0.05-1.18
			c0.01-0.39,0.02-0.8,0.04-1.18c0.06-0.46,0.11-1.1,0.21-1.55c0.55-2.87,1.82-5.57,3.53-8.05c1.07,0.43,2.19,0.78,3.32,1.06
			c-2.95,3.45-5.1,7.96-3.89,12.49c1.44,5.12,6.61,8.01,11.46,9.27c12.66,3.2,27.56-1.16,38.4-7.94c4.74-3.08,9.39-6.85,12.14-11.82
			c0.45-0.82,0.8-1.68,1.09-2.57c0.11-0.44,0.22-0.88,0.3-1.33c0.09-0.61,0.1-1.22,0.06-1.84l-0.06-0.38l-0.02-0.19
			c-0.04-0.18-0.1-0.38-0.13-0.56c-0.06-0.17-0.12-0.37-0.17-0.55c-0.05-0.1-0.18-0.42-0.23-0.53c-0.28-0.55-0.61-1.07-1-1.55
			c-0.29-0.34-0.61-0.67-0.94-0.99c-0.7-0.62-1.43-1.18-2.24-1.65c-3.48-2.04-7.47-3.07-11.51-3.57c-1.66-0.21-3.32-0.33-4.97-0.39
			c-1.82-0.04-3.69,0-5.57,0.13c-6.88,0.47-14.05,2.11-20.41,5.08c-2.56,0.12-5.12,0-7.6-0.48c0.94-0.74,1.88-1.44,2.81-2.09
			c10.73-7.39,25.44-12.4,38.92-11.3c1.69,0.14,3.36,0.37,5,0.71c0.71,0.15,1.41,0.31,2.1,0.49c7.21,1.93,13.86,6.41,15.98,13.91
			C86.47,54.63,83.04,61.87,77.82,67.21z"/>
	</g>
</g>
</svg>
