<?xml version="1.0" encoding="utf-8"?>
<!-- Generator: Adobe Illustrator 27.9.0, SVG Export Plug-In . SVG Version: 6.00 Build 0)  -->
<svg version="1.1" id="Camada_1" xmlns="http://www.w3.org/2000/svg" xmlns:xlink="http://www.w3.org/1999/xlink" x="0px" y="0px"
	 viewBox="0 0 148.72 143.72" style="enable-background:new 0 0 148.72 143.72;" xml:space="preserve">
<style type="text/css">
	.st0{fill:#FFFFFF;}
	.st1{fill:#38457A;}
	.st2{fill:#D82521;}
	.st3{fill:#D84C4C;}
	.st4{fill:#B3B3B3;}
	.st5{fill:#A5A5A5;}
	.st6{fill:#898989;}
	.st7{fill:#999999;}
	.st8{fill:#474747;}
	.st9{fill:#5A5A5A;}
	.st10{fill:#767676;}
</style>
<g>
	<path class="st2" d="M34.35,79.37c-5.19,4.12-10.24,9.03-14.06,14.58c1.88,0.75,3.82,1.36,5.81,1.85c0.7-0.81,1.42-1.6,2.16-2.34
		c5.48-5.46,12.13-9.85,19.39-13.24C43.17,80.42,38.69,80.22,34.35,79.37z"/>
	<path class="st1" d="M128.72,26.57c0.02-0.8-0.13-1.91-0.19-2.73c-0.1-0.66-0.22-1.37-0.35-2.03c-0.1-0.48-0.39-1.52-0.52-2.01
		c-0.22-0.63-0.45-1.32-0.69-1.96c-0.21-0.44-0.64-1.44-0.87-1.89c-0.26-0.44-0.76-1.38-1.03-1.81c-0.39-0.55-0.79-1.17-1.19-1.7
		c-0.39-0.44-0.92-1.15-1.34-1.59c-0.48-0.47-0.96-1.01-1.45-1.47c-0.62-0.53-1.42-1.29-2.11-1.74c-11-8.18-27.29-8.55-40.39-6.78
		C51.99,4.6,22.18,19.17,7.37,42.3C0.36,53.32-2.9,66.95,3.24,79.11c3.77,7.21,9.92,12,17.04,14.83c1.88,0.75,3.82,1.36,5.81,1.85
		c3.1,0.76,6.29,1.21,9.49,1.39c23.34,1.21,47.95-10.03,66.18-25.39c-2.9-0.36-5.81-0.57-8.69-0.69c-3.18-0.07-6.45,0-9.75,0.23
		c-7.96,3.56-16.3,6.11-24.32,7.6c-3.72,0.63-7.54,1.11-11.37,1.29c-4.47,0.21-8.95,0.01-13.29-0.85c-1.68-0.33-3.34-0.76-4.96-1.31
		c-1.56-0.52-3.02-1.22-4.44-2.02c-0.67-0.43-1.33-0.88-1.96-1.36c-0.83-0.68-1.58-1.46-2.26-2.29c-0.12-0.17-0.46-0.68-0.58-0.83
		c-0.15-0.29-0.32-0.6-0.5-0.88c-0.12-0.3-0.28-0.62-0.42-0.91l-0.11-0.32l-0.23-0.63c-0.29-1.04-0.48-2.1-0.55-3.17
		c-0.03-0.79,0-1.6,0.04-2.38c0.17-1.62,0.45-3.21,0.94-4.78c2.92-9.5,9.52-17.63,16.53-24.6C51.96,18.38,75.91,5.55,98.72,6.48
		c8.76,0.4,18.65,3.5,22.95,11.75c4.21,8.29,0.97,18.14-3.8,25.5c-2.93,4.46-6.5,8.54-10.54,12.22c2.96,0.24,5.88,0.65,8.75,1.24
		C123.08,48.37,128.93,37.55,128.72,26.57z"/>
	<path class="st3" d="M136.1,117.55c-19.24,19.6-51.41,27.73-78.22,25.93c-13.19-0.96-29.06-4.66-38.14-14.93
		c-0.57-0.58-1.2-1.5-1.7-2.14c-0.39-0.55-0.75-1.18-1.12-1.73c-0.32-0.51-0.69-1.32-0.98-1.83c-0.28-0.61-0.55-1.29-0.81-1.91
		c-0.18-0.47-0.47-1.49-0.64-1.98c-0.13-0.49-0.35-1.55-0.46-2.03c-0.1-0.67-0.19-1.39-0.28-2.06c-0.02-0.5-0.09-1.58-0.09-2.07
		c0.01-0.67,0.04-1.4,0.08-2.06c0.1-0.81,0.19-1.93,0.37-2.71c0.96-5.02,3.19-9.74,6.18-14.07c1.88,0.75,3.82,1.36,5.81,1.85
		c-5.15,6.03-8.93,13.93-6.8,21.84c2.51,8.96,11.56,14.01,20.05,16.21c22.14,5.6,48.21-2.03,67.16-13.89
		c8.29-5.38,16.42-11.98,21.23-20.68c0.8-1.44,1.4-2.94,1.9-4.49c0.2-0.76,0.39-1.55,0.52-2.33c0.15-1.07,0.18-2.14,0.11-3.22
		l-0.1-0.67l-0.04-0.34c-0.08-0.32-0.17-0.66-0.23-0.98c-0.11-0.3-0.21-0.65-0.3-0.96c-0.09-0.17-0.32-0.74-0.4-0.93
		c-0.49-0.96-1.06-1.87-1.74-2.71c-0.51-0.6-1.07-1.18-1.64-1.73c-1.23-1.08-2.51-2.06-3.92-2.89c-6.09-3.56-13.07-5.36-20.13-6.25
		c-2.9-0.36-5.81-0.57-8.69-0.69c-3.18-0.07-6.45,0-9.75,0.23c-12.03,0.83-24.58,3.69-35.69,8.89c-4.47,0.21-8.95,0.01-13.29-0.85
		c1.64-1.3,3.29-2.52,4.92-3.66c18.76-12.93,44.48-21.68,68.06-19.76c2.96,0.24,5.88,0.65,8.75,1.24c1.24,0.25,2.46,0.54,3.67,0.86
		c12.61,3.38,24.24,11.21,27.94,24.32C151.22,95.53,145.23,108.2,136.1,117.55z"/>
</g>
</svg>
